<svg width="2000" height="2000" viewBox="0 0 256 256" class="icon" xmlns="http://www.w3.org/2000/svg"><path d="M144 42.666h-32a10.666 10.666 0 0 0-10.666 10.666v16a5.334 5.334 0 0 0 5.334 5.334H112V53.332h32v21.334h5.334a5.334 5.334 0 0 0 5.334-5.334v-16A10.666 10.666 0 0 0 144 42.666" fill="#795548"/><path d="M218.666 64H37.334a10.666 10.666 0 0 0-10.666 10.666v128a10.666 10.666 0 0 0 10.666 10.666h181.334a10.666 10.666 0 0 0 10.666-10.666v-128A10.666 10.666 0 0 0 218.666 64" fill="#FF8F00"/><path d="M48 58.666h16V64H48zm144 0h16V64h-16z" fill="#78909C"/><path d="M69.334 64H80v149.334H69.334zM176 64h10.666v149.334H176z" fill="#D67C05"/><path d="M101.334 106.666a21.334 21.334 0 1 0 42.666 0 21.334 21.334 0 1 0-42.666 0" fill="#FFECB3"/><path d="m213.334 151.92-66.956 34.746-13.046-23.91L200.288 128z" fill="#FFD180"/></svg>